# File created by Blade
# Date/Time:  Wed Jan 21 14:37:25 2015
#---------------------------------------------------------
:version 1.10
:name HOM
:units
  mass 1.0
  length 1.000000
  angle deg
:documentation
     Acclaim Skeleton File
:root
   axis xyz
   order TX TY TZ RX RY RZ
   position 0.000000 0.000000 0.000000
   orientation 0 0 0
:bonedata
   begin
      id 1
      name Spine_dum
      direction 0.000000 1.000000 0.000000
      length 7.067664
      axis 0.0 0.0 0.0 xyz
   end
   begin
      id 2
      name LeftUpLeg_dum
      direction 1.000000 0.000000 0.000000
      length 4.013002
      axis 0.0 0.0 0.0 xyz
   end
   begin
      id 3
      name RightUpLeg_dum
      direction -1.000000 0.000000 0.000000
      length 4.013002
      axis 0.0 0.0 0.0 xyz
   end
   begin
      id 4
      name Spine
      direction 0.000000 1.000000 0.000000
      length 0.000000
      axis 0.0 0.0 0.0 xyz
      dof rx ry rz
   end
   begin
      id 5
      name Spine_dum1
      direction 0.000000 1.000000 0.000000
      length 15.039886
      axis 0.0 0.0 0.0 xyz
   end
   begin
      id 6
      name Spine_dum2
      direction 0.000000 1.000000 0.000000
      length 10.530368
      axis 0.0 0.0 0.0 xyz
   end
   begin
      id 7
      name Spine_dum3
      direction 0.000000 1.000000 0.000000
      length 10.530368
      axis 0.0 0.0 0.0 xyz
   end
   begin
      id 8
      name Head
      direction 0.000000 1.000000 0.000000
      length 4.527550
      axis 0.0 0.0 0.0 xyz
      dof rx ry rz
   end
   begin
      id 9
      name LeftShoulder
      direction 1.000000 0.000000 0.000000
      length 7.028855
      axis 0.0 0.0 -90.0 xyz
      dof rx ry rz
   end
   begin
      id 10
      name LeftArm
      direction 1.000000 0.000000 0.000000
      length 10.797705
      axis 0.0 0.0 -90.0 xyz
      dof rx ry rz
   end
   begin
      id 11
      name LeftForeArm
      direction 1.000000 0.000000 0.000000
      length 7.907442
      axis 0.0 0.0 -90.0 xyz
      dof ry rz rx
   end
   begin
      id 12
      name LeftHand
      direction 0.000000 0.000000 0.000000
      length 0.000000
      axis 0.0 0.0 -90.0 xyz
      dof rx ry rz
   end
   begin
      id 13
      name LeftHand_dum1
      direction 0.000000 0.000000 0.000000
      length 0.000000
      axis 0.0 0.0 -90.0 xyz
   end
   begin
      id 14
      name LeftHand_dum2
      direction 1.000000 0.000000 0.000000
      length 3.937000
      axis 0.0 0.0 -90.0 xyz
   end
   begin
      id 15
      name LeftHandThumb1
      direction 0.000000 0.000000 1.000000
      length 3.937000
      axis 0.0 0.0 -90.0 xyz
      dof rx rz ry
   end
   begin
      id 16
      name RightShoulder
      direction -1.000000 0.000000 0.000000
      length 7.028855
      axis 0.0 0.0 90.0 xyz
      dof rx ry rz
   end
   begin
      id 17
      name RightArm
      direction -1.000000 0.000000 0.000000
      length 10.797705
      axis 0.0 0.0 90.0 xyz
      dof rx ry rz
   end
   begin
      id 18
      name RightForeArm
      direction -1.000000 0.000000 0.000000
      length 7.907442
      axis 0.0 0.0 90.0 xyz
      dof ry rz rx
   end
   begin
      id 19
      name RightHand
      direction 0.000000 0.000000 0.000000
      length 0.000000
      axis 0.0 0.0 90.0 xyz
      dof rx ry rz
   end
   begin
      id 20
      name RightHand_dum1
      direction 0.000000 0.000000 0.000000
      length 0.000000
      axis 0.0 0.0 90.0 xyz
   end
   begin
      id 21
      name RightHand_dum2
      direction -1.000000 0.000000 0.000000
      length 3.937000
      axis 0.0 0.0 90.0 xyz
   end
   begin
      id 22
      name RightHandThumb1
      direction 0.000000 0.000000 1.000000
      length 3.937000
      axis 0.0 0.0 90.0 xyz
      dof rx rz ry
   end
   begin
      id 23
      name LeftUpLeg
      direction 0.000000 -1.000000 0.000000
      length 16.899758
      axis 0.0 0.0 0.0 xyz
      dof rx ry rz
   end
   begin
      id 24
      name LeftLeg
      direction 0.000000 -1.000000 0.000000
      length 17.389183
      axis 0.0 0.0 0.0 xyz
      dof rx ry rz
   end
   begin
      id 25
      name LeftFoot
      direction 0.000000 -0.258819 0.965926
      length 4.924528
      axis 15.0 0.0 0.0 xyz
      dof rx ry rz
   end
   begin
      id 26
      name LeftToeBase
      direction 0.000000 0.000000 1.000000
      length 2.952750
      axis 0.0 0.0 0.0 xyz
      dof rx ry rz
   end
   begin
      id 27
      name RightUpLeg
      direction 0.000000 -1.000000 0.000000
      length 16.899758
      axis 0.0 0.0 0.0 xyz
      dof rx ry rz
   end
   begin
      id 28
      name RightLeg
      direction 0.000000 -1.000000 0.000000
      length 17.389183
      axis 0.0 0.0 0.0 xyz
      dof rx ry rz
   end
   begin
      id 29
      name RightFoot
      direction 0.000000 -0.258819 0.965926
      length 4.924528
      axis 15.0 0.0 0.0 xyz
      dof rx ry rz
   end
   begin
      id 30
      name RightToeBase
      direction 0.000000 0.000000 1.000000
      length 2.952750
      axis 0.0 0.0 0.0 xyz
      dof rx ry rz
   end
:hierarchy
   begin
      root Spine_dum LeftUpLeg_dum RightUpLeg_dum
      Spine_dum Spine
      LeftUpLeg_dum LeftUpLeg
      RightUpLeg_dum RightUpLeg
      Spine Spine_dum1 Spine_dum2 Spine_dum3
      Spine_dum1 Head
      Spine_dum2 LeftShoulder
      Spine_dum3 RightShoulder
      LeftShoulder LeftArm
      LeftArm LeftForeArm
      LeftForeArm LeftHand
      LeftHand LeftHand_dum1 LeftHand_dum2
      LeftHand_dum1 LeftHandThumb1
      RightShoulder RightArm
      RightArm RightForeArm
      RightForeArm RightHand
      RightHand RightHand_dum1 RightHand_dum2
      RightHand_dum1 RightHandThumb1
      LeftUpLeg LeftLeg
      LeftLeg LeftFoot
      LeftFoot LeftToeBase
      RightUpLeg RightLeg
      RightLeg RightFoot
      RightFoot RightToeBase
   end

# File created by Blade
# Date/Time:  Wed Jan 21 14:37:15 2015
# Frame Rate: 120.000 fps
#------------------------------------------------------
:FULLY-SPECIFIED
:DEGREES
32
root 18.524822 35.493139 -21.814318 -171.422355 -2.340084 -178.793604
Spine -17.911065 -0.722703 1.030078
Head 6.689831 -1.593003 1.593897
LeftShoulder -13.741639 -36.412098 24.547851
LeftArm 0.095893 2.404470 -8.092146
LeftForeArm 13.555095 -0.000000 -2.745065
LeftHand -10.400618 -0.000000 -4.957605
LeftHandThumb1 -26.253704 0.000000 33.147579
RightShoulder -12.871761 0.449912 -12.932669
RightArm 4.792781 37.768727 11.040568
RightForeArm -38.574833 -0.000000 4.689249
RightHand -6.484310 -0.000000 10.052477
RightHandThumb1 -24.326973 -0.000000 -32.862282
LeftUpLeg -0.918226 11.377452 1.023865
LeftLeg -6.563473 -0.000000 0.000000
LeftFoot -19.971436 29.645047 -11.271626
LeftToeBase 27.209554 -0.000000 -0.000000
RightUpLeg -1.695501 -7.958946 1.253044
RightLeg -3.478142 -0.000000 0.000000
RightFoot -20.628119 -27.304089 13.463653
RightToeBase 24.106304 -0.000000 -0.000000
33
root 18.525979 35.493218 -21.811497 -171.429562 -2.350981 -178.785378
Spine -17.902376 -0.716227 1.036671
Head 6.686752 -1.607724 1.583720
LeftShoulder -13.717030 -36.419250 24.499260
LeftArm 0.085412 2.401444 -8.087813
LeftForeArm 13.590125 -0.000000 -2.713624
LeftHand -10.368589 -0.000000 -4.912483
LeftHandThumb1 -26.253704 0.000000 33.147579
RightShoulder -12.861551 0.470102 -12.909193
RightArm 4.811100 37.789535 11.032779
RightForeArm -38.686448 -0.000000 4.691336
RightHand -6.468647 -0.000000 10.034686
RightHandThumb1 -24.326973 -0.000000 -32.862282
LeftUpLeg -0.900310 11.313953 1.040565
LeftLeg -6.591606 -0.000000 0.000000
LeftFoot -19.965589 29.689007 -11.281884
LeftToeBase 27.205672 -0.000000 -0.000000
RightUpLeg -1.691560 -7.965136 1.264762
RightLeg -3.479501 -0.000000 0.000000
RightFoot -20.623818 -27.302146 13.477458
RightToeBase 24.085800 -0.000000 -0.000000
34
root 18.526264 35.493396 -21.808501 -171.438946 -2.355103 -178.791082
Spine -17.892270 -0.704124 1.021825
Head 6.687214 -1.620989 1.592463
LeftShoulder -13.689092 -36.426369 24.460205
LeftArm 0.080659 2.426908 -8.094460
LeftForeArm 13.658735 -0.000000 -2.693773
LeftHand -10.267916 -0.000000 -5.014711
LeftHandThumb1 -26.253704 0.000000 33.147579
RightShoulder -12.846463 0.509616 -12.886841
RightArm 4.809585 37.752702 11.019889
RightForeArm -38.688418 -0.000000 4.729870
RightHand -6.493377 -0.000000 10.094403
RightHandThumb1 -24.326973 -0.000000 -32.862282
LeftUpLeg -0.896765 11.313829 1.035293
LeftLeg -6.590198 -0.000000 0.000000
LeftFoot -19.947941 29.687704 -11.272163
LeftToeBase 27.180168 -0.000000 -0.000000
RightUpLeg -1.682341 -7.969944 1.257991
RightLeg -3.485298 -0.000000 0.000000
RightFoot -20.616113 -27.301565 13.460658
RightToeBase 24.040360 -0.000000 -0.000000
35
root 18.527274 35.493107 -21.806587 -171.449947 -2.374294 -178.794232
Spine -17.882722 -0.712224 1.006346
Head 6.683619 -1.630485 1.615539
LeftShoulder -13.670485 -36.437106 24.434109
LeftArm 0.085984 2.470456 -8.104514
LeftForeArm 13.681115 -0.000000 -2.682298
LeftHand -10.252843 -0.000000 -4.966776
LeftHandThumb1 -26.253704 0.000000 33.147579
RightShoulder -12.831962 0.518492 -12.831531
RightArm 4.879477 37.622758 10.984929
RightForeArm -38.532310 -0.000000 4.631438
RightHand -6.456100 -0.000000 10.100508
RightHandThumb1 -24.326973 -0.000000 -32.862282
LeftUpLeg -0.888879 11.301467 1.037720
LeftLeg -6.600035 -0.000000 0.000000
LeftFoot -19.941364 29.691121 -11.279614
LeftToeBase 26.974210 -0.000000 -0.000000
RightUpLeg -1.672608 -7.996144 1.259880
RightLeg -3.487513 -0.000000 0.000000
RightFoot -20.611964 -27.306723 13.443739
RightToeBase 24.056822 -0.000000 -0.000000
36
root 18.528003 35.493246 -21.802116 -171.467311 -2.386116 -178.797859
Spine -17.858563 -0.738130 1.003783
Head 6.685451 -1.605131 1.622852
LeftShoulder -13.663452 -36.443551 24.397533
LeftArm 0.078143 2.523688 -8.093713
LeftForeArm 13.714553 -0.000000 -2.662719
LeftHand -10.240000 -0.000000 -4.972923
LeftHandThumb1 -26.253704 0.000000 33.147579
RightShoulder -12.794091 0.540567 -12.797038
RightArm 4.919163 37.667660 10.995922
RightForeArm -38.533032 -0.000000 4.625023
RightHand -6.410287 -0.000000 10.209861
RightHandThumb1 -24.326973 -0.000000 -32.862282
LeftUpLeg -0.885818 11.295916 1.038143
LeftLeg -6.587075 -0.000000 0.000000
LeftFoot -19.938506 29.681550 -11.266454
LeftToeBase 27.190047 -0.000000 -0.000000
RightUpLeg -1.663205 -7.996630 1.256878
RightLeg -3.482184 -0.000000 0.000000
RightFoot -20.621923 -27.318709 13.449256
RightToeBase 24.110031 -0.000000 -0.000000
37
root 18.529047 35.493500 -21.800090 -171.482396 -2.395322 -178.796424
Spine -17.843845 -0.731347 0.991486
Head 6.681283 -1.621873 1.645485
LeftShoulder -13.636571 -36.424352 24.330531
LeftArm 0.141372 2.609053 -8.086824
LeftForeArm 13.708456 -0.000000 -2.709409
LeftHand -10.192727 -0.000000 -4.946485
LeftHandThumb1 -26.253704 0.000000 33.147579
RightShoulder -12.786756 0.544061 -12.745297
RightArm 4.970195 37.660085 10.995198
RightForeArm -38.544225 -0.000000 4.615654
RightHand -6.402980 0.000000 10.177575
RightHandThumb1 -24.326973 -0.000000 -32.862282
LeftUpLeg -0.873703 11.286438 1.044261
LeftLeg -6.589193 -0.000000 0.000000
LeftFoot -19.930471 29.683494 -11.244595
LeftToeBase 27.266726 -0.000000 -0.000000
RightUpLeg -1.647939 -8.001527 1.258235
RightLeg -3.486367 -0.000000 0.000000
RightFoot -20.612740 -27.319125 13.441734
RightToeBase 24.077491 -0.000000 -0.000000
38
root 18.530006 35.494142 -21.797582 -171.473497 -2.409202 -178.792299
Spine -17.860270 -0.689974 0.973986
Head 6.680166 -1.689643 1.654026
LeftShoulder -13.569193 -36.418865 24.249324
LeftArm 0.177928 2.729197 -8.095249
LeftForeArm 13.668563 -0.000000 -2.707912
LeftHand -10.151917 -0.000000 -4.909036
LeftHandThumb1 -26.253704 0.000000 33.147579
RightShoulder -12.829734 0.567372 -12.714083
RightArm 5.032377 37.625937 11.016086
RightForeArm -38.534604 -0.000000 4.605089
RightHand -6.318091 -0.000000 10.228925
RightHandThumb1 -24.326973 -0.000000 -32.862282
LeftUpLeg -0.886652 11.274392 1.048337
LeftLeg -6.594943 -0.000000 0.000000
LeftFoot -19.918664 29.684704 -11.258233
LeftToeBase 27.143729 -0.000000 -0.000000
RightUpLeg -1.663376 -8.017438 1.267476
RightLeg -3.479915 -0.000000 0.000000
RightFoot -20.615040 -27.312555 13.457236
RightToeBase 24.092589 -0.000000 -0.000000
39
root 18.531854 35.494288 -21.795218 -171.484810 -2.419693 -178.792880
Spine -17.857545 -0.684018 0.955741
Head 6.689106 -1.707369 1.682245
LeftShoulder -13.515909 -36.421233 24.181246
LeftArm 0.185893 2.845324 -8.085507
LeftForeArm 13.692235 -0.000000 -2.685158
LeftHand -10.112476 -0.000000 -4.973398
LeftHandThumb1 -26.253704 0.000000 33.147579
RightShoulder -12.798460 0.587017 -12.658209
RightArm 5.011901 37.459281 10.976065
RightForeArm -38.369620 -0.000000 4.680268
RightHand -6.371418 0.000000 10.329291
RightHandThumb1 -24.326973 -0.000000 -32.862282
LeftUpLeg -0.881065 11.269649 1.053236
LeftLeg -6.594120 -0.000000 0.000000
LeftFoot -19.909656 29.681482 -11.241642
LeftToeBase 27.230654 -0.000000 -0.000000
RightUpLeg -1.652308 -8.013080 1.269329
RightLeg -3.484992 -0.000000 0.000000
RightFoot -20.612227 -27.328893 13.468815
RightToeBase 24.049215 -0.000000 -0.000000
40
root 18.533309 35.494383 -21.793705 -171.510205 -2.434975 -178.792042
Spine -17.833072 -0.691810 0.941155
Head 6.684620 -1.738164 1.703105
LeftShoulder -13.485873 -36.418876 24.122402
LeftArm 0.193355 2.951381 -8.075681
LeftForeArm 13.640656 -0.000000 -2.644507
LeftHand -10.065689 0.000000 -4.985756
LeftHandThumb1 -26.253704 0.000000 33.147579
RightShoulder -12.783627 0.626871 -12.613572
RightArm 5.088219 37.399812 11.018410
RightForeArm -38.334044 -0.000000 4.682696
RightHand -6.468390 -0.000000 10.303899
RightHandThumb1 -24.326973 -0.000000 -32.862282
LeftUpLeg -0.859988 11.259855 1.062741
LeftLeg -6.594975 -0.000000 0.000000
LeftFoot -19.904544 29.676215 -11.253805
LeftToeBase 27.170899 -0.000000 -0.000000
RightUpLeg -1.628333 -8.029194 1.270300
RightLeg -3.484262 -0.000000 0.000000
RightFoot -20.617001 -27.318033 13.476654
RightToeBase 24.019473 -0.000000 -0.000000
41
root 18.533896 35.495436 -21.787950 -171.515664 -2.436301 -178.788586
Spine -17.827092 -0.674307 0.928364
Head 6.678975 -1.762265 1.731909
LeftShoulder -13.424366 -36.422650 24.023842
LeftArm 0.211404 3.077631 -8.051133
LeftForeArm 13.550954 -0.000000 -2.629422
LeftHand -10.065253 -0.000000 -4.972685
LeftHandThumb1 -26.253704 0.000000 33.147579
RightShoulder -12.767774 0.636449 -12.536939
RightArm 5.165468 37.401718 11.021933
RightForeArm -38.352180 0.000000 4.628326
RightHand -6.315673 -0.000000 10.284321
RightHandThumb1 -24.326973 -0.000000 -32.862282
LeftUpLeg -0.872925 11.268173 1.063749
LeftLeg -6.579788 -0.000000 0.000000
LeftFoot -19.899358 29.665825 -11.247101
LeftToeBase 27.162859 -0.000000 -0.000000
RightUpLeg -1.637323 -7.999486 1.273875
RightLeg -3.474135 -0.000000 0.000000
RightFoot -20.611824 -27.351247 13.486627
RightToeBase 24.001340 -0.000000 -0.000000
42
root 18.534539 35.496119 -21.784609 -171.531450 -2.436222 -178.783647
Spine -17.818040 -0.669989 0.914048
Head 6.690828 -1.788859 1.770003
LeftShoulder -13.379402 -36.425175 23.947044
LeftArm 0.227938 3.135983 -8.034461
LeftForeArm 13.464177 -0.000000 -2.638997
LeftHand -10.083429 -0.000000 -5.109120
LeftHandThumb1 -26.253704 0.000000 33.147579
RightShoulder -12.716263 0.662365 -12.448803
RightArm 5.239772 37.385126 11.013597
RightForeArm -38.320944 0.000000 4.545454
RightHand -6.263683 -0.000000 10.147691
RightHandThumb1 -24.326973 -0.000000 -32.862282
LeftUpLeg -0.863518 11.261350 1.072401
LeftLeg -6.578832 -0.000000 0.000000
LeftFoot -19.898433 29.678578 -11.238382
LeftToeBase 27.206937 -0.000000 -0.000000
RightUpLeg -1.634116 -7.981785 1.278022
RightLeg -3.461856 -0.000000 0.000000
RightFoot -20.621959 -27.356206 13.510802
RightToeBase 24.062187 -0.000000 -0.000000
43
root 18.536361 35.496502 -21.781520 -171.556945 -2.451327 -178.784142
Spine -17.791700 -0.672102 0.887960
Head 6.677271 -1.827137 1.817312
LeftShoulder -13.343917 -36.449883 23.877794
LeftArm 0.253904 3.166305 -8.030612
LeftForeArm 13.313643 -0.000000 -2.661564
LeftHand -10.118654 -0.000000 -5.300215
LeftHandThumb1 -26.253704 0.000000 33.147579
RightShoulder -12.685537 0.694369 -12.356241
RightArm 5.309080 37.384514 11.026304
RightForeArm -38.280902 -0.000000 4.556921
RightHand -6.314692 -0.000000 10.038789
RightHandThumb1 -24.326973 -0.000000 -32.862282
LeftUpLeg -0.848376 11.249717 1.080770
LeftLeg -6.573327 -0.000000 0.000000
LeftFoot -19.894174 29.676348 -11.241074
LeftToeBase 27.211216 -0.000000 -0.000000
RightUpLeg -1.614804 -7.998392 1.279299
RightLeg -3.455427 -0.000000 0.000000
RightFoot -20.617811 -27.362567 13.479509
RightToeBase 24.079330 -0.000000 -0.000000
